<svg width="80" height="80" viewBox="0 0 80 80" fill="none" xmlns="http://www.w3.org/2000/svg">
<rect width="80" height="80" rx="8" fill="#142E67"/>
<g clip-path="url(#clip0_5_63)">
<path d="M21.25 52.5L28.0812 28.5917C28.1747 28.2654 28.3718 27.9785 28.6428 27.7742C28.9138 27.57 29.244 27.4595 29.5833 27.4595C29.9227 27.4595 30.2528 27.57 30.5238 27.7742C30.7948 27.9785 30.992 28.2654 31.0854 28.5917L37.9167 52.5" stroke="white" stroke-width="2" stroke-linecap="round" stroke-linejoin="round"/>
<path d="M58.7501 27.5H50.4167C48.7591 27.5 47.1694 28.1585 45.9973 29.3306C44.8252 30.5027 44.1667 32.0924 44.1667 33.75C44.1667 35.4076 44.8252 36.9973 45.9973 38.1694C47.1694 39.3415 48.7591 40 50.4167 40H52.5001C54.1577 40 55.7474 40.6585 56.9195 41.8306C58.0916 43.0027 58.7501 44.5924 58.7501 46.25C58.7501 47.9076 58.0916 49.4973 56.9195 50.6694C55.7474 51.8415 54.1577 52.5 52.5001 52.5H44.1667" stroke="white" stroke-width="2" stroke-linecap="round" stroke-linejoin="round"/>
<path d="M50.4167 56.6667V52.5" stroke="white" stroke-width="2" stroke-linecap="round" stroke-linejoin="round"/>
<path d="M52.5 27.5V23.3333" stroke="white" stroke-width="2" stroke-linecap="round" stroke-linejoin="round"/>
<path d="M24.375 44.1667H34.7917" stroke="white" stroke-width="2" stroke-linecap="round" stroke-linejoin="round"/>
</g>
<defs>
<clipPath id="clip0_5_63">
<rect width="50" height="50" fill="white" transform="translate(15 15)"/>
</clipPath>
</defs>
</svg>
