<svg width="80" height="80" viewBox="0 0 80 80" fill="none" xmlns="http://www.w3.org/2000/svg">
<rect width="80" height="80" rx="8" fill="#2A4628"/>
<g clip-path="url(#clip0_5_8)">
<path d="M49.494 31.0715C49.0793 29.8949 48.322 28.8693 47.3195 28.1267C46.3171 27.3842 45.1153 26.9586 43.869 26.9048H35.5356C33.878 26.9048 32.2883 27.5633 31.1162 28.7354C29.9441 29.9075 29.2856 31.4972 29.2856 33.1548C29.2856 34.8124 29.9441 36.4021 31.1162 37.5742C32.2883 38.7463 33.878 39.4048 35.5356 39.4048H43.869C45.5266 39.4048 47.1163 40.0633 48.2884 41.2354C49.4605 42.4075 50.119 43.9972 50.119 45.6548C50.119 47.3124 49.4605 48.9021 48.2884 50.0742C47.1163 51.2463 45.5266 51.9048 43.869 51.9048H35.5356C34.2893 51.851 33.0875 51.4254 32.0851 50.6828C31.0826 49.9403 30.3253 48.9147 29.9106 47.7381" stroke="white" stroke-width="3.5" stroke-linecap="round" stroke-linejoin="round"/>
<path d="M40 20.9524V27.2024M40 52.2024V58.4524" stroke="white" stroke-width="3.5" stroke-linecap="round" stroke-linejoin="round"/>
</g>
<defs>
<clipPath id="clip0_5_8">
<rect width="50" height="50" fill="white" transform="translate(15 15)"/>
</clipPath>
</defs>
</svg>
