<svg width="80" height="80" viewBox="0 0 80 80" fill="none" xmlns="http://www.w3.org/2000/svg">
<rect width="80" height="80" rx="8" fill="#452534"/>
<g clip-path="url(#clip0_13_440)">
<path d="M58.7501 27.5H50.4167C48.7591 27.5 47.1694 28.1585 45.9973 29.3306C44.8252 30.5027 44.1667 32.0924 44.1667 33.75C44.1667 35.4076 44.8252 36.9973 45.9973 38.1694C47.1694 39.3415 48.7591 40 50.4167 40H52.5001C54.1577 40 55.7474 40.6585 56.9195 41.8306C58.0916 43.0027 58.7501 44.5924 58.7501 46.25C58.7501 47.9076 58.0916 49.4973 56.9195 50.6694C55.7474 51.8415 54.1577 52.5 52.5001 52.5H44.1667" stroke="white" stroke-width="2" stroke-linecap="round" stroke-linejoin="round"/>
<path d="M35.8333 52.5H33.75C30.4348 52.5 27.2554 51.183 24.9112 48.8388C22.567 46.4946 21.25 43.3152 21.25 40C21.25 36.6848 22.567 33.5054 24.9112 31.1612C27.2554 28.817 30.4348 27.5 33.75 27.5H35.8333" stroke="white" stroke-width="2" stroke-linecap="round" stroke-linejoin="round"/>
<path d="M50.4167 56.6667V52.5" stroke="white" stroke-width="2" stroke-linecap="round" stroke-linejoin="round"/>
<path d="M52.5 27.5V23.3333" stroke="white" stroke-width="2" stroke-linecap="round" stroke-linejoin="round"/>
</g>
<defs>
<clipPath id="clip0_13_440">
<rect width="50" height="50" fill="white" transform="translate(15 15)"/>
</clipPath>
</defs>
</svg>
